<svg xmlns="http://www.w3.org/2000/svg" viewBox="0 0 512 512" role="img" aria-label="Beatelion icon">
  <defs>
    <linearGradient id="brandGradient" x1="0%" y1="0%" x2="100%" y2="100%">
      <stop offset="0%" stop-color="#FF4D4D" />
      <stop offset="52%" stop-color="#FF6A2B" />
      <stop offset="100%" stop-color="#FF8A3D" />
    </linearGradient>
    <filter id="brandGlow" x="-50%" y="-50%" width="200%" height="200%">
      <feGaussianBlur stdDeviation="8" result="blur" />
      <feMerge>
        <feMergeNode in="blur" />
        <feMergeNode in="SourceGraphic" />
      </feMerge>
    </filter>
  </defs>

  <rect width="512" height="512" rx="90" fill="#0B0B0F" />

  <g filter="url(#brandGlow)" fill="url(#brandGradient)">
    <path d="M256 62l58 118-58 90-58-90z" />
    <path d="M124 178l82 48-24 112-62-36z" />
    <path d="M388 178l4 124-62 36-24-112z" />
    <path d="M186 326l70 46 70-46-14 58-56 44-56-44z" />
    <path d="M202 236h108l-14 56h-80z" fill="#0B0B0F" />
  </g>

  <g stroke="url(#brandGradient)" stroke-width="7" stroke-linecap="round" opacity="0.95">
    <path d="M38 256h98" />
    <path d="M376 256h98" />
    <path d="M58 256l8-24 8 48 8-72 8 96 8-72 8 48 8-24" />
    <path d="M430 232l8 24 8-48 8 72 8-96 8 72 8-48 8 24" />
  </g>
</svg>

